<svg width="18" height="18" viewBox="0 0 18 18" fill="none" xmlns="http://www.w3.org/2000/svg">
<path d="M15.75 9C15.75 5.27344 12.7266 2.25 9 2.25C5.27344 2.25 2.25 5.27344 2.25 9C2.25 12.7266 5.27344 15.75 9 15.75C12.7266 15.75 15.75 12.7266 15.75 9Z" stroke="black" stroke-width="1.5" stroke-miterlimit="10"/>
<path d="M12.3283 5.30613L8.20795 6.95426C7.92497 7.06742 7.66793 7.2369 7.45242 7.4524C7.23692 7.66791 7.06744 7.92495 6.95428 8.20793L5.30615 12.3282C5.28569 12.3794 5.28069 12.4353 5.29175 12.4893C5.30281 12.5432 5.32946 12.5927 5.36839 12.6316C5.40732 12.6706 5.45681 12.6972 5.51074 12.7083C5.56467 12.7193 5.62067 12.7143 5.67178 12.6939L9.79209 11.0457C10.0751 10.9326 10.3321 10.7631 10.5476 10.5476C10.7631 10.3321 10.9326 10.0751 11.0458 9.79207L12.6939 5.67176C12.7143 5.62065 12.7194 5.56466 12.7083 5.51072C12.6972 5.45679 12.6706 5.4073 12.6317 5.36837C12.5927 5.32944 12.5432 5.30279 12.4893 5.29173C12.4354 5.28067 12.3794 5.28567 12.3283 5.30613ZM9.00002 9.84375C8.83314 9.84375 8.67001 9.79426 8.53126 9.70155C8.3925 9.60884 8.28436 9.47706 8.2205 9.32289C8.15663 9.16871 8.13993 8.99906 8.17248 8.83539C8.20504 8.67172 8.2854 8.52138 8.4034 8.40338C8.5214 8.28538 8.67174 8.20502 8.83541 8.17246C8.99908 8.13991 9.16873 8.15662 9.32291 8.22048C9.47708 8.28434 9.60886 8.39248 9.70157 8.53124C9.79428 8.66999 9.84377 8.83312 9.84377 9C9.84377 9.22378 9.75487 9.43839 9.59664 9.59662C9.43841 9.75485 9.2238 9.84375 9.00002 9.84375Z" fill="black"/>
</svg>
