<svg xmlns="http://www.w3.org/2000/svg" xmlns:xlink="http://www.w3.org/1999/xlink" width="500" zoomAndPan="magnify" viewBox="0 0 375 374.999991" height="500" preserveAspectRatio="xMidYMid meet" version="1.0"><defs><clipPath id="e02fc54d25"><path d="M 39.609375 0 L 335.109375 0 L 335.109375 375 L 39.609375 375 Z M 39.609375 0 " clip-rule="nonzero"/></clipPath><clipPath id="b5fa20abca"><path d="M 68.554688 28.839844 L 306.445312 28.839844 L 306.445312 267.664062 L 68.554688 267.664062 Z M 68.554688 28.839844 " clip-rule="nonzero"/></clipPath><clipPath id="92aa8c5bda"><path d="M 187.5 28.839844 C 121.808594 28.839844 68.554688 82.226562 68.554688 148.082031 C 68.554688 213.9375 121.808594 267.324219 187.5 267.324219 C 253.191406 267.324219 306.445312 213.9375 306.445312 148.082031 C 306.445312 82.226562 253.191406 28.839844 187.5 28.839844 Z M 187.5 28.839844 " clip-rule="nonzero"/></clipPath><clipPath id="3f108fc27f"><path d="M 173 184 L 236 184 L 236 197.488281 L 173 197.488281 Z M 173 184 " clip-rule="nonzero"/></clipPath><clipPath id="bd3a3bc539"><path d="M 268 140 L 279.6875 140 L 279.6875 197.488281 L 268 197.488281 Z M 268 140 " clip-rule="nonzero"/></clipPath><clipPath id="5e164f71f7"><path d="M 255.347656 139.96875 L 293.3125 139.96875 L 293.3125 206.550781 L 255.347656 206.550781 Z M 255.347656 139.96875 " clip-rule="nonzero"/></clipPath><clipPath id="d137e2388b"><path d="M 272.597656 139.96875 L 276.0625 139.96875 C 280.636719 139.96875 285.023438 141.785156 288.257812 145.023438 C 291.492188 148.257812 293.3125 152.644531 293.3125 157.21875 L 293.3125 189.292969 C 293.3125 193.867188 291.492188 198.253906 288.257812 201.488281 C 285.023438 204.722656 280.636719 206.542969 276.0625 206.542969 L 272.597656 206.542969 C 268.023438 206.542969 263.636719 204.722656 260.402344 201.488281 C 257.167969 198.253906 255.347656 193.867188 255.347656 189.292969 L 255.347656 157.21875 C 255.347656 152.644531 257.167969 148.257812 260.402344 145.023438 C 263.636719 141.785156 268.023438 139.96875 272.597656 139.96875 Z M 272.597656 139.96875 " clip-rule="nonzero"/></clipPath><clipPath id="cf6280c3f7"><path d="M 162.449219 178.417969 L 255.347656 178.417969 L 255.347656 216.417969 L 162.449219 216.417969 Z M 162.449219 178.417969 " clip-rule="nonzero"/></clipPath></defs><g clip-path="url(#e02fc54d25)"><path fill="#5a8fdf" d="M 306.460938 147.851562 C 306.460938 82.167969 253.203125 28.910156 187.523438 28.910156 C 121.816406 28.910156 68.558594 82.167969 68.558594 147.851562 C 68.558594 213.554688 121.816406 266.8125 187.523438 266.8125 C 253.203125 266.8125 306.460938 213.554688 306.460938 147.851562 Z M 187.523438 0.0117188 C 269.160156 0.0117188 335.359375 66.210938 335.359375 147.851562 C 335.359375 278.863281 187.523438 375.011719 187.523438 375.011719 C 187.523438 375.011719 39.660156 278.863281 39.660156 147.851562 C 39.660156 66.210938 105.863281 0.0117188 187.523438 0.0117188 " fill-opacity="1" fill-rule="nonzero"/></g><path fill="#5a8fdf" d="M 202.898438 103.164062 C 192.316406 103.164062 182.367188 107.285156 174.894531 114.777344 C 173.785156 115.867188 173.785156 117.671875 174.894531 118.78125 C 175.984375 119.871094 177.789062 119.871094 178.898438 118.78125 C 185.300781 112.359375 193.84375 108.832031 202.898438 108.832031 C 211.980469 108.832031 220.5 112.359375 226.921875 118.78125 C 227.476562 119.3125 228.191406 119.59375 228.925781 119.59375 C 229.640625 119.59375 230.371094 119.3125 230.925781 118.78125 C 232.035156 117.671875 232.035156 115.867188 230.925781 114.777344 C 223.433594 107.285156 213.484375 103.164062 202.898438 103.164062 " fill-opacity="1" fill-rule="nonzero"/><path fill="#5a8fdf" d="M 233.464844 164.105469 C 225.296875 172.269531 214.4375 176.75 202.898438 176.75 C 191.367188 176.75 180.5 172.269531 172.355469 164.105469 C 164.191406 155.933594 159.691406 145.097656 159.691406 133.542969 C 159.691406 122.007812 164.191406 111.144531 172.355469 103 C 180.5 94.832031 191.367188 90.332031 202.898438 90.332031 C 214.4375 90.332031 225.296875 94.832031 233.464844 103 C 241.625 111.144531 246.109375 122.007812 246.109375 133.542969 C 246.109375 145.097656 241.625 155.933594 233.464844 164.105469 Z M 246.027344 90.433594 C 234.511719 78.894531 219.195312 72.554688 202.898438 72.554688 C 186.609375 72.554688 171.304688 78.894531 159.789062 90.433594 C 142.667969 107.535156 137.332031 132.808594 145.9375 155.304688 L 114.183594 187.054688 C 110.164062 191.078125 110.164062 197.640625 114.183594 201.664062 L 134.800781 222.277344 C 136.738281 224.21875 139.339844 225.289062 142.089844 225.289062 C 144.867188 225.289062 147.441406 224.21875 149.40625 222.277344 L 181.160156 190.523438 C 188.09375 193.179688 195.429688 194.53125 202.921875 194.53125 C 211.066406 194.53125 218.957031 192.941406 226.269531 189.910156 C 233.566406 186.898438 240.28125 182.417969 246.027344 176.671875 C 269.8125 152.882812 269.8125 114.195312 246.027344 90.433594 " fill-opacity="1" fill-rule="nonzero"/><g clip-path="url(#b5fa20abca)"><g clip-path="url(#92aa8c5bda)"><path fill="#ffffff" d="M 68.554688 28.839844 L 306.445312 28.839844 L 306.445312 267.664062 L 68.554688 267.664062 Z M 68.554688 28.839844 " fill-opacity="1" fill-rule="nonzero"/></g></g><g clip-path="url(#3f108fc27f)"><path fill="#64b445" d="M 177.261719 194.226562 C 177.261719 194.226562 169.550781 354.507812 177.261719 358.707031 C 184.976562 362.902344 229.699219 369.246094 232.785156 358.707031 C 235.871094 348.164062 235.871094 207.328125 232.785156 194.226562 C 229.699219 181.125 177.792969 182.566406 177.261719 194.226562 Z M 177.261719 194.226562 " fill-opacity="1" fill-rule="nonzero"/></g><g clip-path="url(#bd3a3bc539)"><path fill="#64b445" d="M 269.617188 147.296875 C 269.617188 147.296875 266.347656 360.046875 269.617188 360.117188 C 272.882812 360.1875 322.238281 369.871094 328.40625 360.117188 C 334.578125 350.363281 333.035156 155.484375 328.40625 147.296875 C 323.777344 139.109375 269.761719 137.402344 269.617188 147.296875 Z M 269.617188 147.296875 " fill-opacity="1" fill-rule="nonzero"/></g><path fill="#5a8fdf" d="M 108.945312 194.929688 C 108.945312 194.929688 179.523438 139.6875 182.921875 145.226562 C 186.320312 150.761719 189.773438 159.824219 195.410156 160.957031 C 201.039062 162.089844 249.738281 126.980469 249.738281 126.980469 C 249.738281 126.980469 255.140625 138.871094 261.632812 136.605469 C 268.121094 134.34375 279.1875 96.378906 276.921875 89.585938 C 274.652344 82.789062 230.652344 87.34375 226.039062 90.738281 C 221.425781 94.136719 232.753906 108.859375 232.753906 108.859375 L 190.847656 131.511719 C 190.847656 131.511719 187.449219 117.921875 177.261719 116.789062 C 167.066406 115.65625 94.585938 172.28125 94.585938 172.28125 Z M 108.945312 194.929688 " fill-opacity="1" fill-rule="nonzero"/><g clip-path="url(#5e164f71f7)"><g clip-path="url(#d137e2388b)"><path fill="#ffffff" d="M 255.347656 139.96875 L 293.3125 139.96875 L 293.3125 206.550781 L 255.347656 206.550781 Z M 255.347656 139.96875 " fill-opacity="1" fill-rule="nonzero"/></g></g><g clip-path="url(#cf6280c3f7)"><path fill="#ffffff" d="M 162.449219 178.417969 L 255.375 178.417969 L 255.375 216.417969 L 162.449219 216.417969 Z M 162.449219 178.417969 " fill-opacity="1" fill-rule="nonzero"/></g></svg>